<svg width="155" height="54" viewBox="0 0 155 54" fill="none" xmlns="http://www.w3.org/2000/svg">
<path fill-rule="evenodd" clip-rule="evenodd" d="M90.4956 20.888C89.8244 21.0132 89.1538 21.2676 88.4845 21.522C84.8728 22.6635 80.6609 23.9308 77.5435 26.2376C73.4554 29.3138 71.8618 32.7918 71.8763 36.2794C71.9005 41.188 75.4916 46.2461 80.4347 49.375C85.3325 52.5037 91.481 53.8319 96.4509 51.9234C99.8568 50.6516 102.773 47.8269 104.383 42.9279C106.239 37.3845 104.778 32.08 101.591 27.4113C100.395 25.5959 98.9519 24.0377 97.3619 22.4784C99.4683 22.1032 101.595 21.7276 103.752 21.3527C110.812 20.3606 118.227 20.1454 125.336 20.5745C134.739 21.0169 143.725 23.0078 152.397 26.6752C153.199 26.9382 154.121 26.5558 154.456 25.7828C154.79 25.0097 154.413 24.1038 153.612 23.7117C144.599 19.9131 135.259 17.7907 125.486 17.3461C118.171 17.045 110.541 17.1306 103.275 18.2506C100.265 18.7497 97.311 19.2489 94.3894 19.8776C90.5784 16.8844 86.3386 14.5344 82.7303 13.0924C58.5893 3.90943 25.9413 15.4725 3.95023 26.9691C3.18072 27.3521 2.8835 28.2553 3.28455 29.0327C3.68689 29.8101 4.63732 30.074 5.40682 29.691C26.6917 18.5777 58.2371 7.13635 81.6021 16.0564C84.3498 17.1059 87.5007 18.8037 90.4956 20.888ZM93.6121 23.3609C92.2286 23.6111 90.8533 23.9899 89.4811 24.4985C86.1703 25.6417 82.2816 26.652 79.4266 28.7021C76.3402 31.0091 75.0114 33.5857 75.0222 36.1691C75.0406 40.3027 78.1308 44.1953 82.1296 46.6729C86.1716 49.2799 91.2196 50.6014 95.3226 48.9461C97.9636 47.9282 100.15 45.7446 101.398 42.006C102.927 37.3649 101.62 32.9662 98.9928 29.205C97.5318 27.0005 95.6651 25.0521 93.6121 23.3609Z" fill="black"/>
<path fill-rule="evenodd" clip-rule="evenodd" d="M3.70147 28.5157C4.1612 27.8726 4.84697 27.2307 5.53403 26.5889C6.85518 25.3049 8.25437 24.1503 8.99407 23.1213C13.5485 16.9478 18.9333 9.48773 21.3452 2.13919C21.6171 1.36576 21.169 0.458957 20.3438 0.195798C19.52 -0.0673583 18.6304 0.314697 18.3577 1.21729C16.0436 8.1789 10.829 15.2535 6.45748 21.2989C5.65837 22.3276 3.97094 23.7378 2.61749 25.0216C1.46888 26.1774 0.551465 27.3348 0.214007 28.4953C-0.0222652 29.1398 0.229263 30.3038 1.67913 31.0873C3.73456 32.1327 9.45385 33.071 10.0072 33.2034C15.6132 34.5279 20.5449 35.8482 24.0605 40.7772C24.5669 41.426 25.5517 41.5606 26.2553 41.1772C26.9597 40.6647 27.1207 39.632 26.613 38.9832C22.6052 33.4055 17.0836 31.5651 10.6931 30.1069C10.285 30.1045 6.8664 29.5678 4.49301 28.7789C4.23673 28.6483 3.95388 28.6464 3.70147 28.5157Z" fill="black"/>
</svg>
